<svg width="365" height="522" viewBox="0 0 365 522" fill="none" xmlns="http://www.w3.org/2000/svg">
<path d="M225.612 72.0862L162.153 64.5264C143.2 62.2764 129.695 67.6576 125.806 91.5629L119.079 131.647L169.749 141.207L175.132 119.974C176.787 113.553 180.748 112.921 187.51 114.354L207.855 118.371C213.772 119.624 219.689 120.878 217.411 127.461L208.477 152.947L157.459 158.916L147.873 206.932L191.825 216.246L196.329 197.77L248.61 190.008L270.302 140.435C287.292 101.937 263.237 76.5265 225.612 72.0862ZM167.401 223.14C152.751 220.036 138.068 229.583 134.964 244.234C131.859 258.885 141.407 273.567 156.057 276.671C170.708 279.776 185.39 270.228 188.495 255.578C191.6 240.927 182.052 226.245 167.401 223.14Z" fill="white"/>
<path d="M56.6162 276.354L26.083 285.776C16.9653 288.594 11.8858 293.794 14.9599 305.507L20.0192 325.189L45.1144 319.276L43.2655 308.48C42.7189 305.211 44.4007 304.118 47.7815 303.4L57.8938 301.108C60.852 300.48 63.8101 299.852 64.1048 303.323L65.194 316.782L43.0916 329.862L48.4543 353.749L70.4291 349.087L68.7382 339.73L91.054 325.574L90.9075 298.519C90.8594 277.479 74.7107 270.748 56.6162 276.354ZM60.6671 357.193C53.3421 358.748 48.5702 366.09 50.1243 373.415C51.6785 380.74 59.0208 385.512 66.3458 383.958C73.6707 382.403 78.4427 375.061 76.8885 367.736C75.3343 360.411 67.992 355.639 60.6671 357.193Z" fill="#EF9E00"/>
<path d="M322.793 220.808L292.673 210.139C283.677 206.956 276.497 208.094 271.971 219.326L264.279 238.136L287.941 248.375L292.903 238.611C294.416 235.661 296.418 235.789 299.558 237.232L309.04 241.429C311.787 242.692 314.535 243.955 312.7 246.915L305.538 258.362L279.998 255.66L270.039 278.024L290.451 287.403L294.681 278.888L321.035 280.854L337.069 259.063C349.592 242.155 340.656 227.114 322.793 220.808ZM277.78 288.079C270.976 284.952 262.764 287.994 259.638 294.798C256.512 301.602 259.553 309.814 266.357 312.94C273.161 316.066 281.373 313.025 284.499 306.221C287.625 299.417 284.584 291.205 277.78 288.079Z" fill="#EF9E00"/>
<path d="M249.939 370.434L218.243 366.383C208.776 365.177 202.001 367.81 199.955 379.746L196.42 399.759L221.714 404.755L224.496 394.161C225.351 390.958 227.334 390.659 230.708 391.404L240.864 393.499C243.816 394.151 246.769 394.803 245.602 398.085L241.027 410.789L215.494 413.556L210.496 437.522L232.431 442.367L234.762 433.148L260.935 429.49L271.992 404.798C280.65 385.622 268.732 372.814 249.939 370.434ZM220.19 445.71C212.879 444.095 205.497 448.806 203.882 456.118C202.268 463.43 206.979 470.811 214.29 472.426C221.602 474.041 228.984 469.33 230.599 462.018C232.213 454.706 227.502 447.324 220.19 445.71Z" fill="white"/>
</svg>
