<svg width="514" height="146" viewBox="0 0 514 146" fill="none" xmlns="http://www.w3.org/2000/svg">
<path d="M0.5 46L513.5 0V100L0.5 146V46Z" fill="#EF9E00"/>
<path d="M40.5286 68.2445L45.2908 113.154L56.204 111.15L63.2167 87.7016L67.2537 111.171L77.8895 109.57L92.7118 64.2648L80.4898 62.5555L73.3793 90.9723L71.8809 64.2506L61.2378 65.9787L54.4567 93.0975L52.8928 64.2186L40.5286 68.2445ZM97.3766 63.8341L92.9883 108.827L104.982 106.802L106.915 91.0042L115.78 90.3701L114.182 106.968L125.861 104.905L131.394 59.8849L118.191 61.9415L117.039 77.4236L108.148 78.505L110.474 61.4041L97.3766 63.8341ZM145.281 59.8731L132.861 105.371L145.505 104.185L147.244 96.0983L156.984 95.7134L157.977 103.776L169.862 101.442L164.44 56.9661L145.281 59.8731ZM153.557 69.398L155.81 86.3929L149.501 86.7622L153.557 69.398ZM171.855 57.6545L169.987 70.1401L181.821 68.7L178.61 102.152L191.223 100.396L194.074 67.672L204.5 66.4062L207.121 52.9709L171.855 57.6545ZM235.398 53.0988L230.938 98.2248L242.628 95.9691L248.592 50.0887L235.398 53.0988ZM276.045 47.8645L264.028 49.1919C257.445 49.9008 253.367 52.3206 253.135 58.5081L252.815 67.3102C252.587 73.4339 254.255 75.3378 259.822 76.8077L268.58 79.1077C270.397 79.5371 271.104 80.4991 270.98 81.5264L270.768 83.006C270.656 83.8416 270.108 84.5207 269.144 84.7238C268.179 84.9269 266.963 85.0862 265.826 84.9849C264.689 84.8836 264.343 84.2748 264.26 83.5182L264.044 80.6731L252.413 81.9065L252.353 87.3173C252.318 90.1185 253.98 94.3125 257.55 95.1764C261.12 96.0402 268.521 95.4578 273.159 94.3295C277.797 93.2013 280.397 91.0886 281.545 85.5286L282.615 80.2292C283.587 75.5098 282.125 72.254 276.516 70.4058L267.975 67.6435C266.229 67.0813 265.11 65.5794 265.154 64.8127L265.205 62.837C265.201 61.8198 265.988 60.295 267.392 60.1845L270.458 59.8796C272.439 59.6601 273.195 60.8726 272.986 62.2883L272.515 66.0142L283.725 64.3687L285.68 53.6571C286.346 49.8523 281.607 47.236 276.045 47.8645ZM313.168 46.5329L311.3 59.0185L323.134 57.5784L319.923 91.0307L332.536 89.2748L335.387 56.5504L345.813 55.2846L348.434 41.8494L313.168 46.5329ZM352.65 43.7436L348.261 88.7368L360.256 86.7117L362.188 70.9138L371.053 70.2797L369.455 86.8781L381.134 84.8141L386.667 39.7944L373.464 41.8511L372.312 57.3332L363.421 58.4145L365.747 41.3136L352.65 43.7436ZM394.219 40.5993L389.76 85.7253L401.45 83.4696L407.414 37.5892L394.219 40.5993ZM434.867 35.365L422.849 36.6924C416.267 37.4013 412.189 39.8211 411.957 46.0086L411.637 54.8107C411.408 60.9344 413.076 62.8383 418.643 64.3082L427.402 66.6081C429.219 67.0376 429.925 67.9996 429.802 69.0269L429.589 70.5065C429.477 71.3421 428.929 72.0212 427.965 72.2243C427.001 72.4274 425.785 72.5867 424.647 72.4854C423.51 72.3841 423.164 71.7753 423.081 71.0186L422.865 68.1736L411.234 69.407L411.175 74.8177C411.139 77.619 412.801 81.813 416.371 82.6769C419.941 83.5407 427.342 82.9582 431.981 81.83C436.619 80.7017 439.218 78.5891 440.367 73.0291L441.436 67.7296C442.409 63.0102 440.946 59.7545 435.337 57.9063L426.796 55.144C425.051 54.5818 423.931 53.0799 423.976 52.3132L424.027 50.3375C424.022 49.3203 424.809 47.7955 426.213 47.685L429.279 47.3801C431.261 47.1606 432.016 48.3731 431.807 49.7888L431.337 53.5147L442.547 51.8692L444.502 41.1576C445.167 37.3528 440.429 34.7365 434.867 35.365ZM470.442 31.9928L456.267 34.3804C452.034 35.0951 449.25 37.095 449.194 42.4419L449.054 51.4207L460.49 50.2663L460.963 45.3954C461.112 43.9208 461.96 43.5361 463.491 43.4156L468.089 42.9901C469.429 42.8847 470.768 42.7792 470.488 44.3277L469.378 50.33L458.384 54.8205L457.881 65.6722L467.835 64.8888L468.207 60.6619L479.418 55.7091L482.525 43.762C484.969 34.4747 478.844 30.5683 470.442 31.9928ZM462.706 67.9001C459.388 68.1612 456.485 71.1245 456.293 74.4469C456.1 77.7693 458.684 80.3008 462.002 80.0397C465.32 79.7786 468.222 76.8153 468.415 73.4929C468.608 70.1704 466.024 67.639 462.706 67.9001Z" fill="white"/>
</svg>
